<?xml version="1.0" standalone="no"?>
<!DOCTYPE svg PUBLIC "-//W3C//DTD SVG 20010904//EN"
 "http://www.w3.org/TR/2001/REC-SVG-20010904/DTD/svg10.dtd">
<svg version="1.0" xmlns="http://www.w3.org/2000/svg"
 width="260.000000pt" height="260.000000pt" viewBox="0 0 260.000000 260.000000"
 preserveAspectRatio="xMidYMid meet">
<metadata>
Created by potrace 1.11, written by Peter Selinger 2001-2013
</metadata>
<g transform="translate(0.000000,260.000000) scale(0.100000,-0.100000)"
fill="#000000" stroke="none">
<path d="M1200 2451 c-8 -5 -18 -7 -23 -4 -11 7 -87 -17 -87 -28 0 -4 -17 -9
-37 -12 -74 -10 -124 -25 -142 -41 -9 -9 -32 -16 -49 -16 -17 0 -34 -4 -37
-10 -3 -5 -17 -10 -29 -10 -13 0 -40 -11 -60 -25 -20 -14 -44 -25 -52 -25 -27
0 -52 -19 -58 -44 -3 -14 -14 -28 -24 -31 -9 -3 -48 -41 -87 -84 -38 -43 -78
-81 -87 -84 -10 -3 -22 -18 -28 -34 -5 -15 -15 -35 -20 -43 -6 -8 -18 -27 -28
-41 -9 -14 -22 -24 -28 -22 -19 6 -64 -37 -64 -63 0 -13 -6 -24 -13 -24 -18 0
-44 -30 -48 -54 -3 -12 -13 -20 -27 -21 -13 -1 -28 -8 -32 -15 -9 -14 -30
-123 -30 -154 0 -9 -6 -27 -14 -39 -20 -32 -27 -129 -11 -159 8 -17 9 -31 3
-42 -10 -17 23 -133 49 -171 7 -11 13 -27 13 -37 0 -9 14 -33 30 -51 17 -19
30 -39 30 -45 0 -5 11 -20 25 -33 13 -13 25 -31 25 -39 0 -8 9 -26 20 -40 11
-14 20 -35 20 -48 0 -35 92 -125 130 -126 19 -1 30 -6 30 -16 1 -16 44 -70 56
-70 5 0 40 -34 79 -75 40 -41 77 -75 84 -75 7 0 3 8 -9 18 -14 11 -21 26 -18
40 l3 23 32 -23 c25 -19 29 -27 21 -41 -12 -22 2 -41 44 -63 16 -8 26 -19 23
-24 -6 -10 42 -70 58 -70 6 0 1 10 -11 23 -30 32 -29 67 1 67 23 -1 57 -21 57
-35 0 -5 -7 -16 -16 -26 -14 -16 -14 -20 1 -49 9 -18 30 -37 46 -43 17 -7 29
-19 29 -29 0 -9 10 -24 22 -32 27 -19 36 -13 14 9 -36 36 -12 74 39 61 29 -7
31 -20 11 -58 -14 -26 -13 -28 4 -28 10 0 22 -4 25 -10 3 -5 22 -10 41 -10 20
0 42 -6 49 -14 15 -15 149 -31 167 -20 6 4 33 6 59 5 26 -1 50 3 54 9 3 5 17
10 29 10 13 0 35 9 49 20 14 11 34 20 45 20 11 0 34 14 52 30 18 17 38 30 46
30 7 0 21 11 30 25 9 14 25 25 36 25 10 0 29 10 42 22 13 13 35 24 50 25 38 3
116 80 116 116 0 16 5 27 14 27 17 0 192 181 200 208 5 15 16 22 31 22 13 0
30 7 37 15 7 9 27 31 44 51 18 19 34 49 37 67 7 47 29 98 55 131 12 16 22 33
22 38 0 6 9 21 20 35 11 14 20 37 20 51 0 14 6 33 14 41 8 9 16 30 18 46 1 17
8 41 14 53 8 16 9 34 4 54 -6 18 -5 38 2 53 6 13 7 36 3 52 -4 15 -9 46 -10
68 -2 21 -11 44 -19 51 -9 6 -16 21 -16 32 0 11 -4 32 -9 45 -5 13 -12 38 -14
56 -7 41 -35 74 -59 68 -13 -4 -18 1 -18 17 0 26 -29 56 -53 56 -10 0 -17 8
-17 18 0 29 -29 62 -55 62 -14 0 -29 8 -35 19 -5 11 -16 25 -23 33 -7 7 -19
28 -26 46 -7 17 -18 32 -23 32 -5 0 -51 40 -101 89 -134 131 -156 151 -170
153 -7 0 -23 2 -37 3 -14 1 -35 7 -47 13 -12 7 -30 12 -41 12 -10 0 -27 9 -37
20 -10 11 -27 22 -39 26 -11 3 -28 13 -37 21 -9 7 -32 15 -50 17 -19 1 -44 8
-56 14 -12 7 -33 12 -47 12 -14 0 -28 5 -31 10 -4 6 -28 10 -53 9 -26 -1 -63
1 -82 5 -19 3 -42 2 -50 -3z m64 -27 c26 -25 20 -44 -14 -44 -34 0 -57 29 -38
48 16 16 34 15 52 -4z m106 -29 c0 -31 -2 -33 -27 -26 -55 15 -54 74 2 63 21
-3 25 -10 25 -37z m-191 9 c14 -32 14 -33 -30 -36 -30 -3 -34 0 -37 24 -2 19
2 28 15 31 34 9 40 7 52 -19z m281 -31 c0 -21 -4 -24 -22 -19 -13 3 -26 6 -30
6 -5 0 -8 13 -8 29 0 29 1 30 30 20 23 -8 30 -17 30 -36z m-376 2 c5 -14 -27
-35 -54 -35 -11 0 -18 22 -12 38 6 17 59 15 66 -3z m457 5 c20 -11 25 -35 9
-45 -17 -11 -60 7 -60 24 0 32 17 38 51 21z m-553 -32 c4 -22 -61 -43 -66 -21
-5 21 19 44 42 41 11 -2 22 -11 24 -20z m652 -35 c0 -10 -7 -12 -22 -8 -30 9
-42 21 -34 34 9 14 56 -8 56 -26z m-157 1 c39 -9 106 -30 147 -46 75 -29 242
-127 238 -139 -2 -3 -75 -81 -164 -173 l-160 -167 -70 33 c-67 32 -73 33 -200
33 l-131 0 -82 -41 -83 -41 -170 166 -171 167 74 51 c127 87 250 139 384 162
33 6 71 13 85 15 47 9 230 -4 303 -20z m-583 3 c0 -19 -50 -41 -63 -28 -5 5
-7 17 -4 25 8 20 67 22 67 3z m-95 -28 c8 -23 -19 -50 -45 -46 -22 3 -25 39
-4 54 26 19 42 16 49 -8z m909 5 c9 -3 16 -12 16 -20 0 -17 -2 -17 -35 -2 -42
19 -25 39 19 22z m107 -36 c8 -12 0 -48 -10 -48 -5 0 -23 10 -59 35 -1 1 0 10
4 19 5 13 13 16 33 11 14 -4 29 -11 32 -17z m-1104 -5 c18 -16 16 -31 -6 -43
-30 -16 -49 -12 -57 12 -11 36 34 59 63 31z m1169 -49 c13 -19 14 -28 5 -37
-15 -15 -56 25 -48 47 9 23 24 20 43 -10z m-1233 -19 c6 -15 -45 -59 -57 -48
-12 12 -6 42 12 52 24 15 39 13 45 -4z m1421 -167 c13 -38 1 -46 -29 -18 -31
30 -33 53 -3 48 14 -2 26 -14 32 -30z m-1596 -9 c5 -25 -30 -61 -51 -54 -21 9
-22 24 -1 53 18 25 47 26 52 1z m1526 -21 c3 -13 31 -51 62 -85 91 -102 154
-288 170 -504 11 -146 -25 -330 -92 -462 -40 -78 -104 -169 -117 -165 -7 2
-83 79 -171 171 l-158 168 26 58 c62 138 57 288 -14 429 l-38 76 136 145 c75
80 146 156 157 168 25 28 31 29 39 1z m-1432 -61 c24 -23 99 -95 166 -159
l124 -117 -30 -63 c-76 -160 -65 -334 29 -483 l31 -48 -168 -168 c-193 -193
-170 -187 -252 -65 -55 82 -63 99 -107 226 -45 128 -57 201 -56 343 1 121 13
194 51 301 35 102 137 276 161 276 4 0 27 -19 51 -43z m1552 22 c14 -20 12
-49 -3 -49 -11 0 -41 57 -34 64 11 11 21 7 37 -15z m-1714 -46 c-17 -30 -34
-32 -38 -5 -4 26 27 57 42 42 8 -8 7 -18 -4 -37z m1792 -10 c22 -20 23 -46 3
-63 -13 -10 -19 -10 -35 5 -23 20 -26 45 -8 63 15 15 18 15 40 -5z m-1854 -41
c2 -13 -4 -32 -14 -43 -16 -18 -18 -18 -36 -3 -22 21 -23 32 -1 56 22 24 47
19 51 -10z m1008 -23 c177 -32 323 -168 369 -344 55 -212 -50 -432 -253 -532
-75 -38 -77 -38 -197 -38 -120 0 -122 0 -199 38 -293 145 -357 520 -127 747
67 66 139 107 224 125 78 17 109 18 183 4z m918 -15 c17 -16 22 -59 8 -68 -15
-9 -52 25 -52 48 0 38 18 46 44 20z m6 -109 c0 -5 6 -21 13 -35 11 -22 24 -63
58 -176 19 -65 5 -237 -25 -292 -8 -15 -27 -52 -42 -82 -15 -30 -37 -71 -49
-90 -13 -20 -26 -51 -30 -69 -6 -27 -40 -90 -60 -109 -2 -2 12 31 30 75 122
281 125 583 11 847 l-17 38 55 -48 c31 -27 56 -53 56 -59z m-2016 89 c22 -9
20 -41 -4 -67 -18 -18 -22 -20 -30 -7 -13 21 -12 54 2 68 14 14 12 14 32 6z
m71 -54 c-70 -199 -78 -453 -20 -653 13 -45 22 -83 21 -85 -4 -4 -81 123 -111
185 -37 74 -58 204 -45 268 45 205 49 217 108 277 31 32 57 56 59 54 2 -1 -4
-22 -12 -46z m2028 -23 c10 -31 4 -41 -30 -51 -19 -6 -23 -2 -28 28 -4 19 -4
40 0 46 13 20 48 6 58 -23z m-2155 -44 c3 -47 4 -47 -32 -33 -40 15 -33 84 8
78 17 -2 22 -11 24 -45z m2176 -35 c10 -38 7 -53 -13 -65 -18 -11 -21 -9 -32
24 -10 32 -9 38 7 50 25 18 31 17 38 -9z m-2198 -62 c-8 -38 -13 -43 -34 -30
-21 14 -27 50 -12 69 9 11 16 12 31 2 16 -9 19 -19 15 -41z m2234 -42 c6 -14
10 -29 10 -33 0 -7 -43 -31 -55 -31 -8 0 -17 69 -10 79 12 21 45 12 55 -15z
m-2262 -37 c6 -47 -3 -59 -32 -45 -21 9 -24 16 -19 37 8 37 13 42 31 39 10 -2
18 -15 20 -31z m2277 -57 c8 -26 -11 -60 -35 -60 -21 0 -27 30 -14 64 9 22 41
20 49 -4z m-2297 -22 c14 -14 16 -68 3 -68 -28 0 -41 14 -41 46 0 35 16 44 38
22z m2297 -78 c11 -36 -3 -60 -36 -60 -29 0 -30 1 -24 33 4 17 9 35 12 40 9
15 42 6 48 -13z m-2277 -22 c7 -7 12 -25 12 -41 0 -25 -3 -28 -27 -25 -24 3
-28 8 -31 41 -3 31 0 37 15 37 11 0 24 -5 31 -12z m2236 -54 c34 -13 12 -74
-26 -74 -20 0 -23 16 -8 54 10 28 11 29 34 20z m-2204 -53 c17 -33 12 -51 -13
-51 -24 0 -53 42 -42 61 10 16 44 10 55 -10z m2179 -40 c9 -6 11 -18 6 -40 -7
-33 -8 -34 -42 -25 -27 7 -29 21 -7 52 17 24 22 26 43 13z m-2138 -43 c25 -31
24 -43 -6 -56 -23 -10 -26 -9 -41 20 -15 30 -15 32 2 45 23 17 23 17 45 -9z
m2099 -43 c17 -20 -5 -65 -31 -65 -26 0 -33 17 -19 51 14 32 31 37 50 14z
m-2044 -40 c19 -29 12 -55 -14 -55 -50 0 -59 74 -10 79 4 1 15 -10 24 -24z
m2000 -48 c3 -8 0 -26 -5 -40 -8 -20 -18 -27 -36 -27 -23 0 -25 3 -20 23 4 12
9 30 11 40 6 20 42 23 50 4z m-492 -224 l128 -131 -69 -52 c-83 -63 -221 -131
-328 -162 -70 -20 -102 -23 -250 -23 -157 0 -177 3 -265 29 -100 29 -242 98
-298 144 l-32 27 169 169 169 169 69 -28 c60 -26 81 -29 178 -29 126 -1 194
16 271 68 l48 32 41 -40 c22 -23 98 -100 169 -173z m-1454 176 c11 -26 11 -32
-1 -40 -21 -13 -27 -11 -45 16 -19 29 -12 55 14 55 12 0 24 -12 32 -31z m44
-35 c3 -8 2 -12 -4 -9 -6 3 -10 10 -10 16 0 14 7 11 14 -7z m1870 -9 c6 -16
-7 -60 -21 -68 -5 -3 -19 3 -33 13 -23 17 -23 19 -7 44 19 29 52 35 61 11z
m-1867 -41 c16 -25 16 -27 -2 -40 -27 -20 -44 -17 -57 10 -24 53 27 79 59 30z
m1811 -51 c4 -29 -30 -48 -58 -33 -24 13 -25 18 -3 42 22 25 57 20 61 -9z
m-1754 -14 c22 -17 24 -24 15 -36 -29 -34 -81 0 -65 43 7 19 19 18 50 -7z
m1668 -64 c-13 -28 -34 -32 -52 -10 -11 13 -9 20 10 40 21 23 26 24 39 11 12
-12 12 -20 3 -41z m-1582 -46 c0 -5 -7 -9 -15 -9 -17 0 -48 54 -37 64 7 8 52
-39 52 -55z m1500 11 c0 -5 -5 -10 -11 -10 -5 0 -7 5 -4 10 3 6 8 10 11 10 2
0 4 -4 4 -10z m-1430 -20 c0 -5 -2 -10 -4 -10 -3 0 -8 5 -11 10 -3 6 -1 10 4
10 6 0 11 -4 11 -10z m1363 -84 c7 -17 -37 -61 -52 -51 -17 10 -13 25 12 46
27 22 33 23 40 5z m-63 -92 c0 -26 -13 -44 -30 -44 -27 0 -35 36 -14 67 16 25
17 26 30 8 8 -10 14 -24 14 -31z m-1129 -1 c33 -20 38 -43 10 -43 -23 0 -51
25 -51 46 0 18 6 18 41 -3z m1041 -5 c-7 -7 -12 -16 -12 -22 0 -5 3 -6 7 -3
11 12 33 -14 33 -39 0 -17 -7 -25 -24 -30 -14 -3 -30 -3 -35 1 -15 8 -14 38 1
53 6 6 9 14 6 17 -3 3 -12 0 -20 -8 -7 -8 -29 -19 -48 -26 -19 -6 -73 -36
-120 -66 -47 -30 -105 -65 -130 -77 -56 -27 -207 -50 -234 -36 -16 9 -18 7
-13 -6 4 -9 4 -30 0 -46 -6 -31 -32 -40 -61 -21 -17 10 -12 66 6 67 6 1 17 2
24 3 22 2 0 11 -93 37 -86 25 -98 32 -146 80 -29 29 -53 55 -53 58 0 3 25 -4
56 -14 163 -57 415 -65 574 -20 41 11 91 24 110 29 43 10 118 44 145 65 23 18
44 21 27 4z m-62 -91 c0 -46 -53 -66 -66 -25 -4 15 -1 25 12 35 29 21 54 16
54 -10z m-796 -88 c-35 -14 -54 -9 -66 17 -11 23 -10 28 7 41 18 13 23 11 49
-18 27 -31 28 -33 10 -40z m711 51 c14 -43 -26 -85 -54 -57 -16 16 -14 28 11
54 26 28 35 29 43 3z m-81 -101 c-21 -23 -50 -25 -58 -3 -10 25 2 50 27 61 19
9 24 7 35 -14 12 -21 11 -27 -4 -44z m-79 -6 c5 -20 2 -31 -11 -40 -26 -19
-51 -16 -57 6 -5 22 1 34 28 49 29 16 32 15 40 -15z m-388 11 c19 -5 20 -9 11
-36 -9 -25 -14 -29 -37 -23 -35 9 -41 16 -35 43 6 22 22 26 61 16z m298 -45
c9 -38 -4 -52 -41 -47 -54 6 -38 78 17 78 11 0 20 -11 24 -31z m-95 -8 c0 -19
-24 -51 -39 -51 -4 0 -15 6 -25 13 -15 11 -17 17 -7 35 16 29 71 31 71 3z"/>
</g>
</svg>
